<svg xmlns="http://www.w3.org/2000/svg" version="1.1" xmlns:xlink="http://www.w3.org/1999/xlink" width="512" height="512" x="0" y="0" viewBox="0 0 32 32" style="enable-background:new 0 0 512 512" xml:space="preserve" class=""><g><path d="M27 6H15a3 3 0 0 0-2.24-1H5a3 3 0 0 0-3 3v16a3 3 0 0 0 3 3h22a3 3 0 0 0 3-3V9a3 3 0 0 0-3-3zm1 3v.18A3 3 0 0 0 27 9h-9.76a1 1 0 0 1-.9-.55L16.12 8H27a1 1 0 0 1 1 1zm0 15a1 1 0 0 1-1 1H5a1 1 0 0 1-1-1V8a1 1 0 0 1 1-1h7.76a1 1 0 0 1 .9.55l.89 1.79A3 3 0 0 0 17.24 11H27a1 1 0 0 1 1 1z" data-name="Layer 2" fill="#000000" opacity="1" data-original="#000000" class=""></path></g></svg>